<svg xmlns="http://www.w3.org/2000/svg" width="491" height="535" viewBox="0 0 491 535" fill="none">
  <path d="M 378.00 511.50 L 358.00 506.50 L 337.00 491.50 L 320.50 474.00 L 288.00 429.50 L 267.50 479.00 L 253.00 496.50 L 238.00 504.50 L 223.00 503.50 L 207.50 487.00 L 199.50 457.00 L 198.50 417.00 L 196.00 414.50 L 160.00 443.50 L 116.00 458.50 L 104.00 459.50 L 81.00 455.50 L 68.00 448.50 L 58.50 438.00 L 54.50 427.00 L 57.50 400.00 L 74.50 372.00 L 96.50 351.00 L 60.00 342.50 L 37.00 329.50 L 27.50 320.00 L 17.50 301.00 L 16.50 273.00 L 30.50 247.00 L 43.00 236.50 L 63.00 226.50 L 94.00 219.50 L 122.00 219.50 L 135.00 223.50 L 137.50 221.00 L 117.50 169.00 L 108.50 114.00 L 109.50 80.00 L 113.50 62.00 L 128.00 39.50 L 136.00 35.50 L 154.00 37.50 L 181.50 60.00 L 208.50 102.00 L 234.00 156.50 L 245.50 104.00 L 256.50 73.00 L 274.50 45.00 L 291.00 33.50 L 302.00 34.50 L 309.50 40.00 L 323.50 72.00 L 328.50 103.00 L 328.50 143.00 L 322.50 176.00 L 325.00 180.50 L 366.00 146.50 L 407.00 127.50 L 438.00 127.50 L 451.00 133.50 L 459.50 142.00 L 465.50 160.00 L 464.50 173.00 L 449.50 206.00 L 414.00 246.50 L 368.50 282.00 L 413.00 301.50 L 451.50 334.00 L 470.50 363.00 L 474.50 381.00 L 473.50 391.00 L 462.00 408.50 L 447.00 414.50 L 428.00 415.50 L 390.00 404.50 L 387.50 407.00 L 409.50 446.00 L 412.50 456.00 L 412.50 477.00 L 402.50 498.00 L 392.00 507.50 L 378.00 511.50 Z M 309.50 303.00 L 319.00 298.50 L 326.50 290.00 L 331.50 277.00 L 331.50 262.00 L 327.50 252.00 L 318.00 241.50 L 299.00 236.50 L 287.00 241.50 L 278.50 251.00 L 273.50 265.00 L 273.50 275.00 L 279.50 291.00 L 288.00 299.50 L 297.00 303.50 L 309.50 303.00 Z M 203.50 319.00 L 213.00 315.50 L 221.50 307.00 L 226.50 295.00 L 226.50 277.00 L 221.50 266.00 L 211.00 255.50 L 193.00 252.50 L 181.00 258.50 L 174.50 266.00 L 169.50 278.00 L 169.50 294.00 L 181.00 313.50 L 193.00 319.50 L 203.50 319.00 Z M 255.50 307.00 L 264.50 302.00 L 267.50 293.00 L 262.00 289.50 L 254.00 299.50 L 244.00 290.50 L 241.50 293.00 L 243.50 301.00 L 255.50 307.00 Z" fill="#FC723D" fill-rule="evenodd" clip-rule="evenodd"/>
  <path d="M 307.00 303.50 L 298.00 303.50 L 286.00 297.50 L 277.50 287.00 L 273.50 273.00 L 274.50 262.00 L 279.50 250.00 L 284.00 244.50 L 296.00 237.50 L 295.50 243.00 L 290.00 245.50 L 284.50 251.00 L 278.50 265.00 L 279.50 280.00 L 283.50 288.00 L 291.00 295.50 L 297.00 298.50 L 309.00 298.50 L 316.00 294.50 L 320.50 290.00 L 325.50 281.00 L 326.50 266.00 L 330.00 263.50 L 331.50 266.00 L 331.50 275.00 L 325.50 291.00 L 318.00 298.50 L 307.00 303.50 Z" fill="#FFFFFF"/>
  <path d="M 202.00 319.50 L 191.00 318.50 L 183.00 314.50 L 175.50 307.00 L 170.50 296.00 L 169.50 280.00 L 172.50 270.00 L 176.50 264.00 L 185.00 256.50 L 186.50 261.00 L 178.50 269.00 L 174.50 278.00 L 173.50 287.00 L 174.50 294.00 L 178.50 303.00 L 184.00 309.50 L 190.00 313.50 L 203.00 314.50 L 210.00 311.50 L 217.50 304.00 L 220.50 298.00 L 222.50 288.00 L 221.50 283.00 L 225.00 280.50 L 226.50 281.00 L 226.50 293.00 L 221.50 306.00 L 212.00 315.50 L 202.00 319.50 Z" fill="#FFFFFF"/>
  <path d="M 322.00 267.50 L 309.00 266.50 L 299.50 259.00 L 295.50 250.00 L 295.50 242.00 L 298.00 237.50 L 311.00 238.50 L 318.00 242.50 L 324.50 249.00 L 330.50 262.00 L 327.00 265.50 L 322.00 267.50 Z" fill="#000000"/>
  <path d="M 217.00 284.50 L 205.00 283.50 L 196.00 278.50 L 188.50 269.00 L 186.50 263.00 L 186.50 256.00 L 191.00 253.50 L 203.00 253.50 L 214.00 258.50 L 221.50 267.00 L 225.50 276.00 L 225.50 280.00 L 217.00 284.50 Z" fill="#000000"/>
  <path d="M 257.00 306.50 L 247.00 303.50 L 242.50 298.00 L 241.50 293.00 L 246.00 291.50 L 252.00 299.50 L 257.00 299.50 L 260.50 292.00 L 264.00 290.50 L 266.50 293.00 L 264.50 301.00 L 257.00 306.50 Z" fill="#000000"/>
</svg>